<svg width="20" height="16" viewBox="0 0 20 16" fill="none" xmlns="http://www.w3.org/2000/svg">
<path d="M19.9999 1.93629C19.2612 2.25531 18.4741 2.46677 17.6536 2.56944C18.4977 2.07318 19.142 1.29336 19.445 0.353416C18.6579 0.815443 17.7889 1.1418 16.8628 1.32392C16.1155 0.540428 15.0504 0.0551758 13.8884 0.0551758C11.634 0.0551758 9.81906 1.85684 9.81906 4.06552C9.81906 4.38332 9.84638 4.6889 9.91341 4.9798C6.5281 4.81724 3.53258 3.2197 1.52026 0.786109C1.16894 1.38625 0.962865 2.07318 0.962865 2.81267C0.962865 4.2012 1.68909 5.43205 2.7716 6.14465C2.11738 6.13243 1.47556 5.94541 0.93183 5.65084C0.93183 5.66306 0.93183 5.67895 0.93183 5.69484C0.93183 7.64319 2.34331 9.2615 4.19425 9.6343C3.86279 9.72353 3.50154 9.76631 3.12664 9.76631C2.86594 9.76631 2.60276 9.75164 2.35573 9.69786C2.88333 11.2856 4.38046 12.4529 6.16064 12.4908C4.77523 13.5579 3.01615 14.2007 1.11183 14.2007C0.777895 14.2007 0.457613 14.1861 0.137329 14.1457C1.9411 15.2911 4.0788 15.945 6.38409 15.945C13.8773 15.945 17.9739 9.83354 17.9739 4.53611C17.9739 4.35888 17.9676 4.18775 17.959 4.01786C18.7671 3.45316 19.4461 2.74789 19.9999 1.93629Z" fill="#ABA5AB"/>
</svg>
