<svg width="11" height="19" viewBox="0 0 11 19" fill="none" xmlns="http://www.w3.org/2000/svg">
<path d="M10.3372 0.00392702L7.76073 0C4.86619 0 2.99561 1.8236 2.99561 4.64611V6.78828H0.405122C0.181271 6.78828 0 6.96073 0 7.17344V10.2772C0 10.4899 0.181477 10.6621 0.405122 10.6621H2.99561V18.4939C2.99561 18.7066 3.17688 18.8788 3.40072 18.8788H6.78058C7.00443 18.8788 7.1857 18.7064 7.1857 18.4939V10.6621H10.2146C10.4384 10.6621 10.6197 10.4899 10.6197 10.2772L10.6209 7.17344C10.6209 7.0713 10.5782 6.97349 10.5023 6.90121C10.4265 6.82894 10.3231 6.78828 10.2156 6.78828H7.1857V4.97234C7.1857 4.09953 7.40459 3.65644 8.60114 3.65644L10.3367 3.65585C10.5604 3.65585 10.7417 3.4834 10.7417 3.27089V0.388879C10.7417 0.176569 10.5606 0.00431984 10.3372 0.00392702Z" fill="#ABA5AB"/>
</svg>
