<svg width="21" height="13" viewBox="0 0 21 13" fill="none" xmlns="http://www.w3.org/2000/svg">
<path d="M20.5673 2.03419C20.3253 1.23876 19.616 0.61173 18.7164 0.397545C17.0731 0 10.4998 0 10.4998 0C10.4998 0 3.92662 0 2.28329 0.382473C1.40107 0.59643 0.674452 1.23888 0.432459 2.03419C0 3.48703 0 6.5 0 6.5C0 6.5 0 9.52816 0.432459 10.9658C0.674708 11.7611 1.38376 12.3882 2.28342 12.6023C3.94391 13 10.5 13 10.5 13C10.5 13 17.0731 13 18.7164 12.6176C19.6161 12.4034 20.3253 11.7764 20.5675 10.9811C20.9999 9.52816 20.9999 6.5153 20.9999 6.5153C20.9999 6.5153 21.0172 3.48703 20.5673 2.03419ZM8.40694 9.2835V3.7165L13.8731 6.5L8.40694 9.2835Z" fill="#ABA5AB"/>
</svg>
